<?xml version="1.0" encoding="UTF-8"?><svg id="Ebene_1" xmlns="http://www.w3.org/2000/svg" viewBox="0 0 512 511.98"><defs><style>.cls-1{fill:#0c2072;stroke-width:0px;}</style></defs><path class="cls-1" d="m431.46,109.52c-1.06,8.14-4.31,11.88-9.5,17.75l-124.48,123.48q63.99,63.24,127.98,126.48c5.3,5.62,8.91,11.74,9,19.75.14,13.33-9.74,26.6-23.5,28-9.38.95-19.33-2.06-26.25-8.5q-64.49-63.74-128.98-127.48-65.74,63.74-131.48,127.48c-6.96,5.75-12.4,8.85-21.75,9-16.71.26-28.13-15.11-26-30.99,1.31-9.73,6.74-14.97,13-21.75l122.98-121.48c-16.12-17.64-126.04-122.39-130.48-130.48-1.6-2.91-1.82-6.4-3.5-9.25-2.37-21.65,13.03-36.44,34.49-33.49,4.6.63,9.21,3.71,12.75,6.5q64.74,63.99,129.48,127.98c18.1-16.63,122.54-124.11,129.98-129.48,3.4-2.45,7.62-4.3,11.75-5,20.47-3.45,37.22,10.5,34.49,31.49Z"/></svg>